# 3ds Max Wavefront OBJ Exporter v0.97b - (c)2007 guruware
# 创建的文件:24.07.2013 15:14:10

mtllib BackBone_1.mtl

#
# object joint_backbone_1
#

v  0.1810 -0.0583 -0.1794
v  0.0865 -0.1473 -0.1794
v  0.0865 -0.0583 -0.1794
v  -0.0835 -0.0583 -0.1794
v  -0.0835 0.1120 -0.1794
v  0.0865 0.1120 -0.1794
v  0.1812 0.1120 -0.1794
v  0.1875 0.1120 -0.1754
v  0.1875 -0.0583 -0.1754
v  0.0852 0.2164 -0.1777
v  0.1919 0.2164 -0.0673
v  0.0867 0.2075 -0.1794
v  -0.0835 0.2062 -0.1794
v  -0.1780 0.1120 -0.1794
v  -0.1755 -0.0583 -0.1794
v  -0.0835 -0.1462 -0.1794
v  -0.1881 0.1120 0.1856
v  -0.1881 0.2019 0.0893
v  -0.1881 0.1120 0.0893
v  -0.1881 0.2026 -0.0690
v  -0.1881 0.1120 -0.0690
v  -0.1881 -0.1455 0.0893
v  -0.1881 -0.0583 0.1801
v  -0.1881 -0.0583 0.0893
v  -0.1881 -0.1451 -0.0690
v  -0.1881 -0.0583 -0.0690
v  -0.1881 0.1120 -0.1674
v  -0.1881 -0.0583 -0.1655
v  -0.1847 -0.0583 -0.1731
v  -0.1847 0.1120 -0.1731
v  -0.0835 0.1120 0.1997
v  -0.0835 -0.0583 0.1997
v  0.0865 -0.0583 0.1997
v  0.0865 0.1120 0.1997
v  -0.1664 -0.0583 0.1997
v  -0.1721 0.1120 0.1997
v  -0.1821 0.1120 0.1950
v  -0.1821 -0.0583 0.1950
v  -0.0835 0.2016 0.1997
v  0.0865 0.2016 0.1997
v  0.1766 0.1120 0.1997
v  0.1758 -0.0583 0.1997
v  0.0865 -0.1444 0.1997
v  -0.0835 -0.1445 0.1997
v  0.1911 -0.1473 -0.0690
v  0.1911 -0.0583 -0.1651
v  0.1911 -0.0583 -0.0690
v  0.1911 -0.1627 -0.0690
v  0.1911 0.1120 -0.1657
v  0.1911 0.1120 -0.0690
v  0.1911 0.1120 0.0893
v  0.1911 -0.0583 0.0893
v  0.1931 0.2039 -0.0690
v  0.1932 0.2060 0.0893
v  0.1869 0.1120 0.1940
v  0.1869 -0.0583 0.1940
v  0.1911 -0.0583 0.1836
v  0.1911 -0.1461 0.0893
v  0.1911 0.1120 0.1860
v  0.0865 0.2201 -0.0690
v  -0.0835 0.2201 -0.0690
v  -0.0835 0.2201 0.0893
v  0.0865 0.2201 0.0893
v  0.1855 0.2201 -0.0690
v  0.0867 0.2201 -0.1732
v  -0.0835 0.2164 -0.1794
v  -0.0835 0.2201 -0.1722
v  -0.1827 0.2201 0.0893
v  -0.1817 0.2201 -0.0690
v  -0.1881 0.2164 -0.0690
v  -0.1881 0.2164 0.0893
v  -0.0835 0.2164 0.1997
v  0.0865 0.2164 0.1997
v  0.0865 0.2201 0.1920
v  -0.0835 0.2201 0.1931
v  0.1857 0.2201 0.0893
v  0.1934 0.2164 0.0893
v  0.0865 -0.1627 -0.1794
v  -0.0835 -0.1627 -0.1794
v  -0.1881 -0.1627 -0.0690
v  -0.1881 -0.1627 0.0893
v  0.0865 -0.1627 0.1997
v  -0.0835 -0.1627 0.1997
v  -0.1811 -0.1692 -0.0690
v  -0.1790 -0.1692 0.0893
v  -0.0835 -0.1692 -0.1724
v  0.1911 -0.1627 0.0893
v  0.1821 -0.1692 -0.0690
v  0.0865 -0.1692 -0.1722
v  0.0865 -0.1692 0.1907
v  0.1824 -0.1692 0.0893
v  -0.0835 -0.1692 0.1908
v  -0.0744 -0.1775 -0.1513
v  -0.1609 -0.1775 -0.0615
v  0.1625 -0.1775 -0.0615
v  0.0773 -0.1775 -0.1512
v  -0.1595 -0.1775 0.0816
v  -0.0743 -0.1775 0.1701
v  0.0773 -0.1775 0.1700
v  0.1627 -0.1775 0.0817
v  -0.0744 -0.1814 -0.1513
v  -0.1609 -0.1814 -0.0615
v  0.1625 -0.1814 -0.0615
v  0.0773 -0.1814 -0.1512
v  -0.1595 -0.1814 0.0816
v  -0.0743 -0.1814 0.1701
v  0.0773 -0.1814 0.1700
v  0.1627 -0.1814 0.0817
v  -0.2071 -0.2191 -0.2162
v  -0.2231 -0.2191 -0.1439
v  0.2233 -0.2191 -0.1439
v  0.1822 -0.2191 -0.2159
v  -0.2201 -0.2191 0.1064
v  -0.1566 -0.2191 0.2202
v  0.1528 -0.2191 0.2338
v  0.2237 -0.2191 0.1064
v  -0.2100 -0.2300 -0.2222
v  -0.2288 -0.2300 -0.1460
v  0.2289 -0.2300 -0.1460
v  0.1852 -0.2300 -0.2219
v  -0.2256 -0.2300 0.1086
v  -0.1593 -0.2300 0.2261
v  0.1555 -0.2300 0.2397
v  0.2293 -0.2300 0.1085
v  -0.1884 -0.2971 -0.1959
v  -0.2123 -0.2971 -0.1369
v  0.2130 -0.2971 -0.1369
v  0.1806 -0.2971 -0.1956
v  -0.1770 -0.2971 0.1511
v  -0.1285 -0.2971 0.2107
v  0.1313 -0.2971 0.2106
v  0.1806 -0.2971 0.1511
v  -0.1816 -0.3141 -0.1877
v  -0.2040 -0.3141 -0.1329
v  0.2049 -0.3141 -0.1329
v  0.1739 -0.3141 -0.1875
v  -0.1702 -0.3141 0.1470
v  -0.1235 -0.3141 0.2026
v  0.1263 -0.3141 0.2026
v  0.1737 -0.3141 0.1470
v  -0.1360 -0.5647 -0.1389
v  -0.1528 -0.5647 -0.0978
v  0.1537 -0.5647 -0.0977
v  0.1304 -0.5647 -0.1387
v  -0.1274 -0.5647 0.1120
v  -0.0925 -0.5647 0.1537
v  0.0948 -0.5647 0.1537
v  0.1302 -0.5647 0.1121
v  -0.1085 -0.7758 -0.1093
v  -0.1219 -0.7758 -0.0765
v  0.1227 -0.7758 -0.0765
v  0.1042 -0.7758 -0.1092
v  -0.1016 -0.7758 0.0909
v  -0.0737 -0.7758 0.1242
v  0.0757 -0.7758 0.1241
v  0.1040 -0.7758 0.0909
v  -0.0978 -0.7951 -0.0610
v  -0.0870 -0.7951 -0.0874
v  0.0836 -0.7951 -0.0873
v  0.0985 -0.7951 -0.0610
v  0.0835 -0.7951 0.0733
v  0.0608 -0.7951 0.1000
v  -0.0591 -0.7951 0.1000
v  -0.0815 -0.7951 0.0733
# 164 vertices

vn 0.0000 0.0000 -1.0000
vn 0.4586 0.1790 -0.8704
vn 0.3683 -0.0874 -0.9256
vn 0.5920 0.5676 -0.5722
vn 0.1911 0.2255 -0.9553
vn -1.0000 -0.0000 0.0000
vn -0.4976 0.1593 -0.8527
vn -0.4487 -0.1157 -0.8862
vn -0.9512 -0.0668 -0.3014
vn -0.9441 0.0827 -0.3192
vn 0.0000 -0.0000 1.0000
vn -0.2477 -0.0635 0.9668
vn -0.2718 0.0823 0.9588
vn -0.9322 0.1108 0.3447
vn -0.9443 -0.0876 0.3172
vn 1.0000 0.0000 -0.0000
vn 0.9678 -0.0670 -0.2425
vn 0.9952 -0.0666 -0.0723
vn 0.9999 -0.0114 -0.0000
vn 0.9511 0.1085 -0.2893
vn 0.9997 -0.0227 0.0000
vn 0.3603 0.1029 0.9272
vn 0.3455 -0.0903 0.9341
vn 0.9536 -0.0751 0.2917
vn 0.9413 0.0936 0.3242
vn -0.0000 1.0000 -0.0000
vn -0.0000 1.0000 0.0000
vn -0.1762 0.2062 -0.9625
vn 0.3058 0.7604 -0.5730
vn 0.5500 0.7818 -0.2938
vn -0.2280 0.8409 -0.4908
vn -0.5196 0.8222 0.2323
vn -0.5012 0.8377 -0.2170
vn -0.6055 0.5521 -0.5732
vn -0.9926 0.0834 -0.0885
vn -0.9856 0.1147 0.1243
vn -0.1007 0.0854 0.9912
vn 0.1198 0.1034 0.9874
vn 0.2067 0.8773 0.4331
vn -0.2452 0.8478 0.4703
vn -0.6074 0.5480 0.5751
vn 0.4426 0.8747 0.1976
vn 0.9836 0.1322 -0.1225
vn 0.9867 0.1181 0.1118
vn 0.6017 0.5464 0.5826
vn 0.6016 -0.5600 -0.5696
vn -0.1271 -0.1120 -0.9856
vn 0.0952 -0.0862 -0.9917
vn -0.6055 -0.5521 -0.5732
vn -0.9954 -0.0649 -0.0701
vn -0.9918 -0.0837 0.0963
vn 0.1045 -0.0894 0.9905
vn -0.0763 -0.0605 0.9953
vn -0.6074 -0.5481 0.5751
vn -0.4886 -0.8472 -0.2088
vn -0.4685 -0.8612 0.1969
vn -0.5944 -0.7624 0.2559
vn -0.6314 -0.7218 -0.2835
vn -0.2239 -0.8444 -0.4867
vn -0.3034 -0.7048 -0.6413
vn 0.9940 -0.0733 0.0811
vn 0.5930 -0.7597 -0.2667
vn 0.4686 -0.8603 -0.2005
vn 0.2159 -0.8532 -0.4748
vn 0.2864 -0.7299 -0.6207
vn 0.5791 -0.7739 0.2564
vn 0.2725 -0.7803 0.5629
vn 0.2071 -0.8712 0.4451
vn 0.4606 -0.8658 0.1957
vn 0.6060 -0.5510 0.5737
vn -0.2701 -0.7833 0.5599
vn -0.2060 -0.8723 0.4434
vn -0.1369 -0.9392 -0.3150
vn -0.3311 -0.9348 -0.1283
vn 0.3341 -0.9335 -0.1304
vn 0.1391 -0.9389 -0.3147
vn -0.3323 -0.9336 0.1338
vn -0.1385 -0.9375 0.3191
vn 0.1381 -0.9376 0.3192
vn 0.3333 -0.9336 0.1315
vn -0.7201 0.0000 -0.6939
vn 0.7251 0.0000 -0.6887
vn 0.0009 0.0000 -1.0000
vn -0.9999 -0.0000 0.0100
vn 0.0002 -0.0000 1.0000
vn -0.7203 -0.0000 0.6936
vn 1.0000 0.0000 -0.0014
vn 0.7194 -0.0000 0.6946
vn -0.3938 0.9160 -0.0773
vn -0.1281 0.9321 -0.3389
vn 0.1301 0.9244 -0.3585
vn 0.3965 0.9124 -0.1013
vn -0.4406 0.8881 0.1312
vn 0.1674 0.8961 0.4112
vn -0.1851 0.8917 0.4130
vn 0.4393 0.8896 0.1248
vn -0.8809 0.4261 -0.2062
vn 0.7674 0.4654 -0.4411
vn 0.0008 0.4834 -0.8754
vn -0.8875 0.4606 0.0108
vn -0.0381 0.4764 0.8784
vn -0.7767 0.4547 0.4359
vn 0.8890 0.4578 -0.0011
vn 0.7769 0.4556 0.4346
vn -0.8998 -0.3307 -0.2846
vn -0.8596 -0.4067 -0.3092
vn 0.8416 -0.2537 -0.4767
vn 0.8083 -0.3733 -0.4552
vn 0.0007 -0.3645 -0.9312
vn 0.0007 -0.3986 -0.9171
vn -0.9072 -0.4157 0.0643
vn -0.9079 -0.4098 0.0875
vn -0.0223 -0.3160 0.9485
vn -0.0110 -0.3729 0.9278
vn -0.7824 -0.3610 0.5075
vn -0.7383 -0.4035 0.5404
vn 0.9077 -0.4162 0.0538
vn 0.9088 -0.4099 0.0779
vn 0.7797 -0.3726 0.5032
vn 0.7345 -0.4102 0.5407
vn -0.8125 -0.4796 -0.3314
vn 0.7622 -0.4870 -0.4265
vn 0.0006 -0.4321 -0.9018
vn -0.9081 -0.4038 0.1106
vn 0.0002 -0.4285 0.9036
vn -0.6907 -0.4441 0.5708
vn 0.9094 -0.4033 0.1020
vn 0.6856 -0.4458 0.5755
vn -0.8992 -0.2354 -0.3687
vn 0.8443 -0.2398 -0.4791
vn 0.0006 -0.1913 -0.9815
vn -0.9760 -0.1829 0.1181
vn 0.0002 -0.1915 0.9815
vn -0.7480 -0.2151 0.6279
vn 0.9768 -0.1844 0.1090
vn 0.7428 -0.2171 0.6333
vn -0.9116 -0.1711 -0.3738
vn 0.8564 -0.1744 -0.4860
vn 0.0006 -0.1384 -0.9904
vn -0.9840 -0.1322 0.1191
vn 0.0002 -0.1385 0.9904
vn -0.7566 -0.1560 0.6351
vn 0.9850 -0.1333 0.1099
vn 0.7515 -0.1574 0.6407
vn -0.4134 -0.9093 -0.0475
vn -0.1880 -0.9303 -0.3149
vn 0.1739 -0.9260 -0.3349
vn 0.4002 -0.9136 -0.0715
vn 0.3854 -0.9090 0.1587
vn 0.1568 -0.9217 0.3548
vn -0.1589 -0.9214 0.3547
vn -0.3887 -0.9073 0.1607
vn -0.5946 -0.8011 -0.0684
vn -0.2775 -0.8407 -0.4649
vn 0.2552 -0.8327 -0.4915
vn 0.5779 -0.8095 -0.1033
vn 0.5550 -0.7999 0.2285
vn 0.2283 -0.8252 0.5166
vn -0.2314 -0.8244 0.5165
vn -0.5590 -0.7963 0.2311
# 160 vertex normals

vt 0.3830 0.0833 0.0000
vt 0.4583 0.0123 0.0000
vt 0.4583 0.0833 0.0000
vt 0.5417 0.0833 0.0000
vt 0.5417 0.1667 0.0000
vt 0.4583 0.1667 0.0000
vt 0.3828 0.1667 0.0000
vt 0.3750 0.1667 0.0000
vt 0.3750 0.0833 0.0000
vt 0.4167 0.2500 0.0000
vt 0.2917 0.2500 0.0000
vt 0.4202 0.2429 0.0000
vt 0.5792 0.2418 0.0000
vt 0.6170 0.1667 0.0000
vt 0.6150 0.0833 0.0000
vt 0.5768 0.0132 0.0000
vt 0.8644 0.1667 0.0000
vt 0.7917 0.2385 0.0000
vt 0.7917 0.1667 0.0000
vt 0.7083 0.2390 0.0000
vt 0.7083 0.1667 0.0000
vt 0.8264 0.0138 0.0000
vt 0.8602 0.0833 0.0000
vt 0.7917 0.0833 0.0000
vt 0.7083 0.0140 0.0000
vt 0.7083 0.0833 0.0000
vt 0.6341 0.1667 0.0000
vt 0.6355 0.0833 0.0000
vt 0.6250 0.0833 0.0000
vt 0.6250 0.1667 0.0000
vt 0.5417 0.5833 0.0000
vt 0.5417 0.6667 0.0000
vt 0.4583 0.6667 0.0000
vt 0.4583 0.5833 0.0000
vt 0.6077 0.6667 0.0000
vt 0.6123 0.5833 0.0000
vt 0.6250 0.5833 0.0000
vt 0.6250 0.6667 0.0000
vt 0.8750 0.0833 0.0000
vt 0.8750 0.1667 0.0000
vt 0.5774 0.5118 0.0000
vt 0.4226 0.5118 0.0000
vt 0.3865 0.5833 0.0000
vt 0.3872 0.6667 0.0000
vt 0.4240 0.7354 0.0000
vt 0.5417 0.7354 0.0000
vt 0.3272 0.0123 0.0000
vt 0.3642 0.0833 0.0000
vt 0.2917 0.0833 0.0000
vt 0.3333 0.0000 0.0000
vt 0.3646 0.1667 0.0000
vt 0.2917 0.1667 0.0000
vt 0.2083 0.1667 0.0000
vt 0.2083 0.0833 0.0000
vt 0.2917 0.2400 0.0000
vt 0.2083 0.2417 0.0000
vt 0.3750 0.5833 0.0000
vt 0.3750 0.6667 0.0000
vt 0.1371 0.0833 0.0000
vt 0.2083 0.0133 0.0000
vt 0.1354 0.1667 0.0000
vt 0.1250 0.1667 0.0000
vt 0.1250 0.0833 0.0000
vt 0.4583 0.3333 0.0000
vt 0.5417 0.3333 0.0000
vt 0.5417 0.4167 0.0000
vt 0.4583 0.4167 0.0000
vt 0.3812 0.3333 0.0000
vt 0.4196 0.2559 0.0000
vt 0.5833 0.2500 0.0000
vt 0.3750 0.3333 0.0000
vt 0.5782 0.2603 0.0000
vt 0.6161 0.4167 0.0000
vt 0.6154 0.3333 0.0000
vt 0.6250 0.3333 0.0000
vt 0.6250 0.4167 0.0000
vt 0.7083 0.2500 0.0000
vt 0.7917 0.2500 0.0000
vt 0.5833 0.5000 0.0000
vt 0.4167 0.5000 0.0000
vt 0.4216 0.4901 0.0000
vt 0.5788 0.4909 0.0000
vt 0.8750 0.2500 0.0000
vt 0.3842 0.4167 0.0000
vt 0.3750 0.4167 0.0000
vt 0.2083 0.2500 0.0000
vt 0.1250 0.2500 0.0000
vt 0.4583 0.0000 0.0000
vt 0.5833 0.0000 0.0000
vt 0.7083 0.0000 0.0000
vt 0.8333 0.0000 0.0000
vt 0.4167 0.7500 0.0000
vt 0.5417 0.7500 0.0000
vt 0.6250 0.7917 0.0000
vt 0.6155 0.9167 0.0000
vt 0.6139 0.7972 0.0000
vt 0.6250 0.9167 0.0000
vt 0.5788 0.9909 0.0000
vt 0.5833 1.0000 0.0000
vt 0.2083 0.0000 0.0000
vt 0.3750 0.9583 0.0000
vt 0.3849 0.9534 0.0000
vt 0.4583 0.9908 0.0000
vt 0.4583 1.0000 0.0000
vt 0.3750 0.8333 0.0000
vt 0.4215 0.7598 0.0000
vt 0.3847 0.8333 0.0000
vt 0.1250 0.0000 0.0000
vt 0.5417 0.7597 0.0000
vt 0.0000 0.0000 0.0000
vt 1.0000 0.0000 0.0000
vt 1.0000 1.0000 0.0000
vt 0.0000 1.0000 0.0000
# 113 texture coords

g joint_backbone_1
usemtl lambert2
s off
f 1/1/1 2/2/1 3/3/1 
f 4/4/1 5/5/1 6/6/1 
f 6/6/1 3/3/1 4/4/1 
f 3/3/1 6/6/1 7/7/1 
f 7/7/1 1/1/1 3/3/1 
f 8/8/2 9/9/3 1/1/3 
f 1/1/3 7/7/2 8/8/2 
f 8/8/4 10/10/4 11/11/4 
f 8/8/2 7/7/2 12/12/5 
f 12/12/5 10/10/5 8/8/2 
f 12/12/1 7/7/1 6/6/1 
f 13/13/1 12/12/1 6/6/1 
f 6/6/1 5/5/1 13/13/1 
f 14/14/1 13/13/1 5/5/1 
f 15/15/1 14/14/1 5/5/1 
f 5/5/1 4/4/1 15/15/1 
f 16/16/1 15/15/1 4/4/1 
f 2/2/1 16/16/1 4/4/1 
f 4/4/1 3/3/1 2/2/1 
f 17/17/6 18/18/6 19/19/6 
f 18/18/6 20/20/6 21/21/6 
f 21/21/6 19/19/6 18/18/6 
f 22/22/6 23/23/6 24/24/6 
f 23/23/6 17/17/6 19/19/6 
f 19/19/6 24/24/6 23/23/6 
f 25/25/6 22/22/6 24/24/6 
f 24/24/6 26/26/6 25/25/6 
f 21/21/6 26/26/6 24/24/6 
f 24/24/6 19/19/6 21/21/6 
f 20/20/6 27/27/6 21/21/6 
f 27/27/6 28/28/6 26/26/6 
f 26/26/6 21/21/6 27/27/6 
f 28/28/6 25/25/6 26/26/6 
f 14/14/7 15/15/8 29/29/8 
f 29/29/8 30/30/7 14/14/7 
f 28/28/9 27/27/10 30/30/10 
f 30/30/10 29/29/9 28/28/9 
f 31/31/11 32/32/11 33/33/11 
f 33/33/11 34/34/11 31/31/11 
f 35/35/12 36/36/13 37/37/13 
f 37/37/13 38/38/12 35/35/12 
f 17/17/14 23/23/15 38/39/15 
f 38/39/15 37/40/14 17/17/14 
f 39/41/11 36/36/11 31/31/11 
f 40/42/11 39/41/11 31/31/11 
f 31/31/11 34/34/11 40/42/11 
f 41/43/11 40/42/11 34/34/11 
f 42/44/11 41/43/11 34/34/11 
f 34/34/11 33/33/11 42/44/11 
f 43/45/11 42/44/11 33/33/11 
f 44/46/11 43/45/11 33/33/11 
f 33/33/11 32/32/11 44/46/11 
f 35/35/11 44/46/11 32/32/11 
f 36/36/11 35/35/11 32/32/11 
f 32/32/11 31/31/11 36/36/11 
f 45/47/16 46/48/16 47/49/16 
f 9/9/17 46/48/17 45/47/18 
f 45/47/18 48/50/18 9/9/17 
f 46/48/16 49/51/19 50/52/19 
f 50/52/19 47/49/16 46/48/16 
f 47/49/16 50/52/19 51/53/19 
f 51/53/19 52/54/16 47/49/16 
f 9/9/17 8/8/20 49/51/20 
f 49/51/20 46/48/17 9/9/17 
f 49/51/19 53/55/21 50/52/19 
f 53/55/21 54/56/21 51/53/19 
f 51/53/19 50/52/19 53/55/21 
f 55/57/22 41/43/22 42/44/23 
f 42/44/23 56/58/23 55/57/22 
f 57/59/16 58/60/16 52/54/16 
f 54/56/21 59/61/19 51/53/19 
f 59/61/19 57/59/16 52/54/16 
f 52/54/16 51/53/19 59/61/19 
f 58/60/16 45/47/16 47/49/16 
f 47/49/16 52/54/16 58/60/16 
f 57/59/24 59/61/25 55/62/25 
f 55/62/25 56/63/24 57/59/24 
f 60/64/26 61/65/26 62/66/26 
f 62/66/26 63/67/27 60/64/26 
f 64/68/26 65/69/26 60/64/26 
f 12/12/5 13/13/28 66/70/28 
f 66/70/28 10/10/5 12/12/5 
f 10/10/29 65/69/29 64/68/30 
f 64/68/30 11/71/30 10/10/29 
f 66/70/31 67/72/31 65/69/29 
f 65/69/29 10/10/29 66/70/31 
f 68/73/32 69/74/33 70/75/33 
f 70/75/33 71/76/32 68/73/32 
f 13/13/28 14/14/7 30/30/7 
f 30/30/7 66/70/28 13/13/28 
f 69/74/33 67/72/31 66/70/31 
f 66/70/31 70/75/33 69/74/33 
f 30/30/34 70/77/34 66/70/34 
f 70/77/35 20/20/35 18/18/36 
f 18/18/36 71/78/36 70/77/35 
f 30/30/10 27/27/10 20/20/35 
f 20/20/35 70/77/35 30/30/10 
f 72/79/37 39/41/37 40/42/38 
f 40/42/38 73/80/38 72/79/37 
f 74/81/39 75/82/40 72/79/40 
f 72/79/40 73/80/39 74/81/39 
f 36/36/13 39/41/37 72/79/37 
f 72/79/37 37/37/13 36/36/13 
f 75/82/40 68/73/32 71/76/32 
f 71/76/32 72/79/40 75/82/40 
f 71/78/41 37/40/41 72/83/41 
f 71/78/36 18/18/36 17/17/14 
f 17/17/14 37/40/14 71/78/36 
f 11/71/30 64/68/30 76/84/42 
f 76/84/42 77/85/42 11/71/30 
f 53/55/43 11/11/43 77/86/44 
f 77/86/44 54/56/44 53/55/43 
f 64/68/26 60/64/26 63/67/27 
f 63/67/27 76/84/27 64/68/26 
f 40/42/38 41/43/22 55/57/22 
f 55/57/22 73/80/38 40/42/38 
f 76/84/42 74/81/39 73/80/39 
f 73/80/39 77/85/42 76/84/42 
f 55/62/45 77/86/45 73/87/45 
f 59/61/25 54/56/44 77/86/44 
f 77/86/44 55/62/25 59/61/25 
f 8/8/20 11/11/43 53/55/43 
f 53/55/43 49/51/20 8/8/20 
f 74/81/27 76/84/27 63/67/27 
f 75/82/27 74/81/27 63/67/27 
f 63/67/27 62/66/26 75/82/27 
f 68/73/26 75/82/27 62/66/26 
f 69/74/26 68/73/26 62/66/26 
f 62/66/26 61/65/26 69/74/26 
f 67/72/26 69/74/26 61/65/26 
f 65/69/26 67/72/26 61/65/26 
f 61/65/26 60/64/26 65/69/26 
f 78/88/46 9/9/46 48/50/46 
f 79/89/47 16/16/47 2/2/48 
f 2/2/48 78/88/48 79/89/47 
f 2/2/48 1/1/3 9/9/3 
f 9/9/3 78/88/48 2/2/48 
f 29/29/8 15/15/8 16/16/47 
f 16/16/47 79/89/47 29/29/8 
f 80/90/49 29/29/49 79/89/49 
f 25/25/50 28/28/9 29/29/9 
f 29/29/9 80/90/50 25/25/50 
f 81/91/51 22/22/51 25/25/50 
f 25/25/50 80/90/50 81/91/51 
f 82/92/52 43/45/52 44/46/53 
f 44/46/53 83/93/53 82/92/52 
f 83/93/53 44/46/53 35/35/12 
f 35/35/12 38/38/12 83/93/53 
f 83/93/54 38/38/54 81/94/54 
f 23/23/15 22/22/51 81/91/51 
f 81/91/51 38/39/15 23/23/15 
f 56/58/23 42/44/23 43/45/52 
f 43/45/52 82/92/52 56/58/23 
f 84/95/55 85/96/56 81/94/57 
f 81/94/57 80/97/58 84/95/55 
f 86/98/59 84/95/55 80/97/58 
f 80/97/58 79/99/60 86/98/59 
f 48/50/18 45/47/18 58/60/61 
f 58/60/61 87/100/61 48/50/18 
f 48/101/62 88/102/63 89/103/64 
f 89/103/64 78/104/65 48/101/62 
f 79/99/60 78/104/65 89/103/64 
f 89/103/64 86/98/59 79/99/60 
f 87/105/66 82/92/67 90/106/68 
f 90/106/68 91/107/69 87/105/66 
f 87/100/70 56/63/70 82/108/70 
f 87/100/61 58/60/61 57/59/24 
f 57/59/24 56/63/24 87/100/61 
f 83/93/71 92/109/72 90/106/68 
f 90/106/68 82/92/67 83/93/71 
f 85/96/56 92/109/72 83/93/71 
f 83/93/71 81/94/57 85/96/56 
f 48/101/62 87/105/66 91/107/69 
f 91/107/69 88/102/63 48/101/62 
f 84/95/55 86/98/59 93/98/73 
f 93/98/73 94/95/74 84/95/55 
f 89/103/64 88/102/63 95/102/75 
f 95/102/75 96/103/76 89/103/64 
f 86/98/59 89/103/64 96/103/76 
f 96/103/76 93/98/73 86/98/59 
f 85/96/56 84/95/55 94/95/74 
f 94/95/74 97/96/77 85/96/56 
f 90/106/68 92/109/72 98/109/78 
f 98/109/78 99/106/79 90/106/68 
f 92/109/72 85/96/56 97/96/77 
f 97/96/77 98/109/78 92/109/72 
f 88/102/63 91/107/69 100/107/80 
f 100/107/80 95/102/75 88/102/63 
f 91/107/69 90/106/68 99/106/79 
f 99/106/79 100/107/80 91/107/69 
f 94/95/81 93/98/81 101/98/81 
f 101/98/81 102/95/81 94/95/81 
f 96/103/82 95/102/82 103/102/82 
f 103/102/82 104/103/82 96/103/82 
f 93/98/83 96/103/83 104/103/83 
f 104/103/83 101/98/83 93/98/83 
f 97/96/84 94/95/84 102/95/84 
f 102/95/84 105/96/84 97/96/84 
f 99/106/85 98/109/85 106/109/85 
f 106/109/85 107/106/85 99/106/85 
f 98/109/86 97/96/86 105/96/86 
f 105/96/86 106/109/86 98/109/86 
f 95/102/87 100/107/87 108/107/87 
f 108/107/87 103/102/87 95/102/87 
f 100/107/88 99/106/88 107/106/88 
f 107/106/88 108/107/88 100/107/88 
f 102/95/89 101/98/90 109/98/90 
f 109/98/90 110/95/89 102/95/89 
f 104/103/91 103/102/92 111/102/92 
f 111/102/92 112/103/91 104/103/91 
f 101/98/90 104/103/91 112/103/91 
f 112/103/91 109/98/90 101/98/90 
f 105/96/93 102/95/89 110/95/89 
f 110/95/89 113/96/93 105/96/93 
f 107/106/94 106/109/95 114/109/95 
f 114/109/95 115/106/94 107/106/94 
f 106/109/95 105/96/93 113/96/93 
f 113/96/93 114/109/95 106/109/95 
f 103/102/92 108/107/96 116/107/96 
f 116/107/96 111/102/92 103/102/92 
f 108/107/96 107/106/94 115/106/94 
f 115/106/94 116/107/96 108/107/96 
f 110/95/97 109/98/97 117/98/97 
f 117/98/97 118/95/97 110/95/97 
f 112/103/98 111/102/98 119/102/98 
f 119/102/98 120/103/98 112/103/98 
f 109/98/99 112/103/99 120/103/99 
f 120/103/99 117/98/99 109/98/99 
f 113/96/100 110/95/100 118/95/100 
f 118/95/100 121/96/100 113/96/100 
f 115/106/101 114/109/101 122/109/101 
f 122/109/101 123/106/101 115/106/101 
f 114/109/102 113/96/102 121/96/102 
f 121/96/102 122/109/102 114/109/102 
f 111/102/103 116/107/103 124/107/103 
f 124/107/103 119/102/103 111/102/103 
f 116/107/104 115/106/104 123/106/104 
f 123/106/104 124/107/104 116/107/104 
f 118/95/105 117/98/105 125/98/106 
f 125/98/106 126/95/106 118/95/105 
f 120/103/107 119/102/107 127/102/108 
f 127/102/108 128/103/108 120/103/107 
f 117/98/109 120/103/109 128/103/110 
f 128/103/110 125/98/110 117/98/109 
f 121/96/111 118/95/111 126/95/112 
f 126/95/112 129/96/112 121/96/111 
f 123/106/113 122/109/113 130/109/114 
f 130/109/114 131/106/114 123/106/113 
f 122/109/115 121/96/115 129/96/116 
f 129/96/116 130/109/116 122/109/115 
f 119/102/117 124/107/117 132/107/118 
f 132/107/118 127/102/118 119/102/117 
f 124/107/119 123/106/119 131/106/120 
f 131/106/120 132/107/120 124/107/119 
f 126/95/106 125/98/106 133/98/121 
f 133/98/121 134/95/121 126/95/106 
f 128/103/108 127/102/108 135/102/122 
f 135/102/122 136/103/122 128/103/108 
f 125/98/110 128/103/110 136/103/123 
f 136/103/123 133/98/123 125/98/110 
f 129/96/112 126/95/112 134/95/124 
f 134/95/124 137/96/124 129/96/112 
f 131/106/114 130/109/114 138/109/125 
f 138/109/125 139/106/125 131/106/114 
f 130/109/116 129/96/116 137/96/126 
f 137/96/126 138/109/126 130/109/116 
f 127/102/118 132/107/118 140/107/127 
f 140/107/127 135/102/127 127/102/118 
f 132/107/120 131/106/120 139/106/128 
f 139/106/128 140/107/128 132/107/120 
f 134/110/129 133/111/129 141/112/129 
f 141/112/129 142/113/129 134/110/129 
f 136/110/130 135/111/130 143/112/130 
f 143/112/130 144/113/130 136/110/130 
f 133/110/131 136/111/131 144/112/131 
f 144/112/131 141/113/131 133/110/131 
f 137/110/132 134/111/132 142/112/132 
f 142/112/132 145/113/132 137/110/132 
f 139/110/133 138/111/133 146/112/133 
f 146/112/133 147/113/133 139/110/133 
f 138/110/134 137/111/134 145/112/134 
f 145/112/134 146/113/134 138/110/134 
f 135/110/135 140/111/135 148/112/135 
f 148/112/135 143/113/135 135/110/135 
f 140/110/136 139/111/136 147/112/136 
f 147/112/136 148/113/136 140/110/136 
f 142/110/137 141/111/137 149/112/137 
f 149/112/137 150/113/137 142/110/137 
f 144/110/138 143/111/138 151/112/138 
f 151/112/138 152/113/138 144/110/138 
f 141/110/139 144/111/139 152/112/139 
f 152/112/139 149/113/139 141/110/139 
f 145/110/140 142/111/140 150/112/140 
f 150/112/140 153/113/140 145/110/140 
f 147/110/141 146/111/141 154/112/141 
f 154/112/141 155/113/141 147/110/141 
f 146/110/142 145/111/142 153/112/142 
f 153/112/142 154/113/142 146/110/142 
f 143/110/143 148/111/143 156/112/143 
f 156/112/143 151/113/143 143/110/143 
f 148/110/144 147/111/144 155/112/144 
f 155/112/144 156/113/144 148/110/144 
f 157/113/145 158/113/146 159/113/147 
f 157/113/145 159/113/147 160/113/148 
f 157/113/145 160/113/148 161/113/149 
f 157/113/145 161/113/149 162/113/150 
f 157/113/145 162/113/150 163/113/151 
f 157/113/145 163/113/151 164/113/152 
f 150/113/153 149/113/154 158/113/146 
f 158/113/146 157/113/145 150/113/153 
f 149/113/154 152/113/155 159/113/147 
f 159/113/147 158/113/146 149/113/154 
f 152/113/155 151/113/156 160/113/148 
f 160/113/148 159/113/147 152/113/155 
f 151/113/156 156/113/157 161/113/149 
f 161/113/149 160/113/148 151/113/156 
f 156/113/157 155/113/158 162/113/150 
f 162/113/150 161/113/149 156/113/157 
f 155/113/158 154/113/159 163/113/151 
f 163/113/151 162/113/150 155/113/158 
f 154/113/159 153/113/160 164/113/152 
f 164/113/152 163/113/151 154/113/159 
f 153/113/160 150/113/153 157/113/145 
f 157/113/145 164/113/152 153/113/160 
# 324 faces

