# 3ds Max Wavefront OBJ Exporter v0.97b - (c)2007 guruware
# 创建的文件:24.07.2013 15:27:14

mtllib Neck.mtl

#
# object joint_neck
#

v  0.1993 -0.4186 -0.1972
v  0.0953 -0.5187 -0.1972
v  0.0953 -0.4186 -0.1972
v  -0.0919 -0.4186 -0.1972
v  -0.0919 -0.2269 -0.1972
v  0.0953 -0.2269 -0.1972
v  0.1995 -0.2269 -0.1972
v  0.2064 -0.2269 -0.1928
v  0.2064 -0.4186 -0.1928
v  0.0938 -0.1094 -0.1954
v  0.2112 -0.1094 -0.0738
v  0.0955 -0.1195 -0.1972
v  -0.0919 -0.1209 -0.1972
v  -0.1959 -0.2269 -0.1972
v  -0.1932 -0.4186 -0.1972
v  -0.0919 -0.5175 -0.1972
v  -0.2070 -0.2269 0.2046
v  -0.2070 -0.1257 0.0986
v  -0.2070 -0.2269 0.0986
v  -0.2070 -0.1249 -0.0757
v  -0.2070 -0.2269 -0.0757
v  -0.2070 -0.5167 0.0986
v  -0.2070 -0.4186 0.1984
v  -0.2070 -0.4186 0.0986
v  -0.2070 -0.5163 -0.0757
v  -0.2070 -0.4186 -0.0757
v  -0.2070 -0.2269 -0.1840
v  -0.2070 -0.4186 -0.1820
v  -0.2032 -0.4186 -0.1903
v  -0.2032 -0.2269 -0.1903
v  -0.0919 -0.2269 0.2201
v  -0.0919 -0.4186 0.2201
v  0.0953 -0.4186 0.2201
v  0.0953 -0.2269 0.2201
v  -0.1831 -0.4186 0.2201
v  -0.1894 -0.2269 0.2201
v  -0.2005 -0.2269 0.2149
v  -0.2005 -0.4186 0.2149
v  -0.0919 -0.1261 0.2201
v  0.0953 -0.1261 0.2201
v  0.1944 -0.2269 0.2201
v  0.1936 -0.4186 0.2201
v  0.0953 -0.5155 0.2201
v  -0.0919 -0.5156 0.2201
v  0.2103 -0.5188 -0.0757
v  0.2103 -0.4186 -0.1815
v  0.2103 -0.4186 -0.0757
v  0.2103 -0.5361 -0.0757
v  0.2103 -0.2269 -0.1821
v  0.2103 -0.2269 -0.0757
v  0.2103 -0.2269 0.0986
v  0.2103 -0.4186 0.0986
v  0.2126 -0.1235 -0.0757
v  0.2127 -0.1212 0.0986
v  0.2057 -0.2269 0.2138
v  0.2057 -0.4186 0.2138
v  0.2103 -0.4186 0.2024
v  0.2103 -0.5174 0.0986
v  0.2103 -0.2269 0.2050
v  0.0953 -0.1053 -0.0757
v  -0.0919 -0.1053 -0.0757
v  -0.0919 -0.1053 0.0986
v  0.0953 -0.1053 0.0986
v  0.2042 -0.1053 -0.0757
v  0.0955 -0.1053 -0.1903
v  -0.0919 -0.1094 -0.1972
v  -0.0919 -0.1053 -0.1893
v  -0.2011 -0.1053 0.0986
v  -0.2000 -0.1053 -0.0757
v  -0.2070 -0.1094 -0.0757
v  -0.2070 -0.1094 0.0986
v  -0.0919 -0.1094 0.2201
v  0.0953 -0.1094 0.2201
v  0.0953 -0.1053 0.2116
v  -0.0919 -0.1053 0.2128
v  0.2044 -0.1053 0.0986
v  0.2129 -0.1094 0.0986
v  0.0953 -0.5361 -0.1972
v  -0.0919 -0.5361 -0.1972
v  -0.2070 -0.5361 -0.0757
v  -0.2070 -0.5361 0.0986
v  0.0953 -0.5361 0.2201
v  -0.0919 -0.5361 0.2201
v  -0.1993 -0.5434 -0.0757
v  -0.1970 -0.5434 0.0986
v  -0.0919 -0.5434 -0.1895
v  0.2103 -0.5361 0.0986
v  0.2005 -0.5434 -0.0757
v  0.0953 -0.5434 -0.1893
v  0.0953 -0.5434 0.2102
v  0.2008 -0.5434 0.0986
v  -0.0919 -0.5434 0.2102
v  -0.0819 -0.5527 -0.1663
v  -0.1771 -0.5527 -0.0675
v  0.1789 -0.5527 -0.0674
v  0.0851 -0.5527 -0.1661
v  -0.1755 -0.5527 0.0901
v  -0.0817 -0.5527 0.1875
v  0.0851 -0.5527 0.1874
v  0.1791 -0.5527 0.0901
v  -0.0819 -0.5571 -0.1663
v  -0.1771 -0.5571 -0.0675
v  0.1789 -0.5571 -0.0674
v  0.0851 -0.5571 -0.1661
v  -0.1755 -0.5571 0.0901
v  -0.0817 -0.5571 0.1875
v  0.0851 -0.5571 0.1874
v  0.1791 -0.5571 0.0901
v  -0.2279 -0.5995 -0.2377
v  -0.2455 -0.5995 -0.1581
v  0.2459 -0.5995 -0.1582
v  0.2006 -0.5995 -0.2373
v  -0.2422 -0.5995 0.1174
v  -0.1724 -0.5995 0.2427
v  0.1682 -0.5995 0.2576
v  0.2462 -0.5995 0.1173
v  -0.2311 -0.6118 -0.2444
v  -0.2518 -0.6118 -0.1604
v  0.2520 -0.6118 -0.1605
v  0.2038 -0.6118 -0.2440
v  -0.2483 -0.6118 0.1198
v  -0.1753 -0.6118 0.2492
v  0.1712 -0.6118 0.2641
v  0.2524 -0.6118 0.1197
v  -0.1911 -0.7101 -0.1980
v  -0.2154 -0.7101 -0.1381
v  0.2163 -0.7101 -0.1381
v  0.1834 -0.7101 -0.1977
v  -0.1796 -0.7101 0.1543
v  -0.1303 -0.7101 0.2147
v  0.1334 -0.7101 0.2147
v  0.1833 -0.7101 0.1543
v  -0.1842 -0.7355 -0.1897
v  -0.2071 -0.7355 -0.1340
v  0.2081 -0.7355 -0.1340
v  0.1766 -0.7355 -0.1895
v  -0.1727 -0.7355 0.1501
v  -0.1253 -0.7355 0.2066
v  0.1283 -0.7355 0.2065
v  0.1763 -0.7355 0.1501
v  -0.1496 -0.8848 -0.1526
v  -0.1682 -0.8848 -0.1074
v  0.1692 -0.8848 -0.1073
v  0.1436 -0.8848 -0.1524
v  -0.1402 -0.8848 0.1236
v  -0.1017 -0.8848 0.1694
v  0.1044 -0.8848 0.1694
v  0.1434 -0.8848 0.1236
v  -0.1193 -1.0610 -0.1201
v  -0.1341 -1.0610 -0.0840
v  0.1351 -1.0610 -0.0840
v  0.1147 -1.0610 -0.1200
v  -0.1118 -1.0610 0.1003
v  -0.0811 -1.0610 0.1369
v  0.0834 -1.0610 0.1369
v  0.1145 -1.0610 0.1003
v  -0.1076 -1.1020 -0.0669
v  -0.0957 -1.1020 -0.0959
v  0.0921 -1.1020 -0.0958
v  0.1085 -1.1020 -0.0669
v  0.0920 -1.1020 0.0810
v  0.0670 -1.1020 0.1103
v  -0.0650 -1.1020 0.1103
v  -0.0897 -1.1020 0.0810
# 164 vertices

vn 0.0000 -0.0000 -1.0000
vn 0.4589 0.1752 -0.8710
vn 0.3684 -0.0855 -0.9257
vn 0.5962 0.5590 -0.5762
vn 0.1913 0.2209 -0.9564
vn -1.0000 -0.0000 -0.0000
vn -0.4979 0.1559 -0.8531
vn -0.4488 -0.1132 -0.8864
vn -0.9513 -0.0654 -0.3014
vn -0.9442 0.0809 -0.3193
vn 0.0000 0.0000 1.0000
vn -0.2477 -0.0621 0.9668
vn -0.2718 0.0805 0.9590
vn -0.9324 0.1084 0.3448
vn -0.9445 -0.0857 0.3173
vn 1.0000 0.0000 0.0000
vn 0.9679 -0.0656 -0.2425
vn 0.9952 -0.0652 -0.0723
vn 0.9999 -0.0111 0.0000
vn 0.9513 0.1061 -0.2894
vn 0.9998 -0.0222 0.0000
vn 0.3604 0.1007 0.9274
vn 0.3456 -0.0884 0.9342
vn 0.9537 -0.0735 0.2917
vn 0.9415 0.0916 0.3243
vn -0.0000 1.0000 -0.0000
vn -0.0000 1.0000 0.0000
vn -0.1764 0.2019 -0.9634
vn 0.3098 0.7530 -0.5805
vn 0.5576 0.7748 -0.2978
vn -0.2316 0.8352 -0.4988
vn -0.5276 0.8161 0.2358
vn -0.5092 0.8319 -0.2204
vn -0.6095 0.5436 -0.5770
vn -0.9927 0.0816 -0.0885
vn -0.9859 0.1122 0.1244
vn -0.1007 0.0836 0.9914
vn 0.1199 0.1012 0.9876
vn 0.2103 0.8726 0.4408
vn -0.2492 0.8423 0.4780
vn -0.6114 0.5396 0.5788
vn 0.4503 0.8699 0.2011
vn 0.9840 0.1294 -0.1226
vn 0.9870 0.1156 0.1118
vn 0.6057 0.5379 0.5864
vn 0.6058 -0.5515 -0.5735
vn -0.1271 -0.1096 -0.9858
vn 0.0952 -0.0843 -0.9919
vn -0.6095 -0.5436 -0.5770
vn -0.9955 -0.0634 -0.0701
vn -0.9920 -0.0819 0.0963
vn 0.1045 -0.0874 0.9907
vn -0.0763 -0.0592 0.9953
vn -0.6114 -0.5396 0.5788
vn -0.4964 -0.8418 -0.2121
vn -0.4762 -0.8562 0.2002
vn -0.6020 -0.7553 0.2591
vn -0.6386 -0.7141 -0.2867
vn -0.2275 -0.8389 -0.4944
vn -0.3067 -0.6969 -0.6483
vn 0.9941 -0.0717 0.0811
vn 0.6006 -0.7526 -0.2701
vn 0.4763 -0.8553 -0.2038
vn 0.2194 -0.8480 -0.4824
vn 0.2897 -0.7223 -0.6280
vn 0.5867 -0.7670 0.2598
vn 0.2762 -0.7735 0.5705
vn 0.2106 -0.8665 0.4526
vn 0.4683 -0.8609 0.1990
vn 0.6100 -0.5425 0.5776
vn -0.2737 -0.7765 0.5675
vn -0.2094 -0.8676 0.4509
vn -0.1396 -0.9367 -0.3212
vn -0.3376 -0.9322 -0.1308
vn 0.3406 -0.9308 -0.1329
vn 0.1419 -0.9364 -0.3209
vn -0.3388 -0.9309 0.1364
vn -0.1412 -0.9350 0.3254
vn 0.1408 -0.9350 0.3254
vn 0.3399 -0.9309 0.1340
vn -0.7201 -0.0000 -0.6939
vn 0.7251 0.0000 -0.6887
vn 0.0009 -0.0000 -1.0000
vn -0.9999 -0.0000 0.0100
vn 0.0002 0.0000 1.0000
vn -0.7203 -0.0000 0.6936
vn 1.0000 0.0000 -0.0014
vn 0.7194 0.0000 0.6946
vn -0.4011 0.9126 -0.0788
vn -0.1305 0.9293 -0.3455
vn 0.1326 0.9214 -0.3653
vn 0.4038 0.9090 -0.1032
vn -0.4483 0.8838 0.1335
vn 0.1704 0.8921 0.4185
vn -0.1884 0.8876 0.4203
vn 0.4471 0.8854 0.1270
vn -0.8843 0.4184 -0.2071
vn 0.7710 0.4574 -0.4432
vn 0.0008 0.4753 -0.8798
vn -0.8916 0.4526 0.0108
vn -0.0383 0.4683 0.8827
vn -0.7802 0.4468 0.4378
vn 0.8931 0.4499 -0.0011
vn 0.7804 0.4477 0.4366
vn -0.8620 -0.4291 -0.2699
vn -0.8666 -0.3890 -0.3126
vn 0.8019 -0.3877 -0.4546
vn 0.8092 -0.3709 -0.4557
vn 0.0007 -0.4262 -0.9046
vn 0.0007 -0.3684 -0.9297
vn -0.8874 -0.4569 0.0610
vn -0.9234 -0.3735 0.0888
vn -0.0224 -0.3929 0.9193
vn -0.0111 -0.3500 0.9367
vn -0.7561 -0.4371 0.4870
vn -0.7460 -0.3792 0.5474
vn 0.8874 -0.4582 0.0505
vn 0.9241 -0.3740 0.0791
vn 0.7536 -0.4460 0.4829
vn 0.7426 -0.3846 0.5483
vn -0.8681 -0.3477 -0.3542
vn 0.8162 -0.3539 -0.4567
vn 0.0006 -0.3092 -0.9510
vn -0.9509 -0.2869 0.1159
vn 0.0002 -0.3063 0.9519
vn -0.7306 -0.3187 0.6038
vn 0.9521 -0.2865 0.1068
vn 0.7256 -0.3202 0.6091
vn -0.8841 -0.2949 -0.3625
vn 0.8296 -0.3001 -0.4708
vn 0.0006 -0.2410 -0.9705
vn -0.9660 -0.2305 0.1169
vn 0.0002 -0.2412 0.9705
vn -0.7374 -0.2702 0.6190
vn 0.9666 -0.2325 0.1079
vn 0.7322 -0.2725 0.6242
vn -0.9019 -0.2233 -0.3698
vn 0.8469 -0.2274 -0.4806
vn 0.0006 -0.1813 -0.9834
vn -0.9778 -0.1732 0.1183
vn 0.0002 -0.1814 0.9834
vn -0.7498 -0.2039 0.6294
vn 0.9786 -0.1747 0.1092
vn 0.7447 -0.2058 0.6349
vn -0.6024 -0.7946 -0.0752
vn -0.2934 -0.8357 -0.4642
vn 0.2709 -0.8269 -0.4928
vn 0.5864 -0.8022 -0.1123
vn 0.5595 -0.7945 0.2362
vn 0.2376 -0.8164 0.5263
vn -0.2402 -0.8159 0.5259
vn -0.5624 -0.7918 0.2382
vn -0.8150 -0.5705 -0.1017
vn -0.4159 -0.6279 -0.6578
vn 0.3795 -0.6159 -0.6904
vn 0.7986 -0.5821 -0.1530
vn 0.7581 -0.5682 0.3200
vn 0.3283 -0.6029 0.7272
vn -0.3318 -0.6016 0.7266
vn -0.7607 -0.5635 0.3222
# 160 vertex normals

vt 0.3830 0.0833 0.0000
vt 0.4583 0.0123 0.0000
vt 0.4583 0.0833 0.0000
vt 0.5417 0.0833 0.0000
vt 0.5417 0.1667 0.0000
vt 0.4583 0.1667 0.0000
vt 0.3828 0.1667 0.0000
vt 0.3750 0.1667 0.0000
vt 0.3750 0.0833 0.0000
vt 0.4167 0.2500 0.0000
vt 0.2917 0.2500 0.0000
vt 0.4202 0.2429 0.0000
vt 0.5792 0.2418 0.0000
vt 0.6170 0.1667 0.0000
vt 0.6150 0.0833 0.0000
vt 0.5768 0.0132 0.0000
vt 0.8644 0.1667 0.0000
vt 0.7917 0.2385 0.0000
vt 0.7917 0.1667 0.0000
vt 0.7083 0.2390 0.0000
vt 0.7083 0.1667 0.0000
vt 0.8264 0.0138 0.0000
vt 0.8602 0.0833 0.0000
vt 0.7917 0.0833 0.0000
vt 0.7083 0.0140 0.0000
vt 0.7083 0.0833 0.0000
vt 0.6341 0.1667 0.0000
vt 0.6355 0.0833 0.0000
vt 0.6250 0.0833 0.0000
vt 0.6250 0.1667 0.0000
vt 0.5417 0.5833 0.0000
vt 0.5417 0.6667 0.0000
vt 0.4583 0.6667 0.0000
vt 0.4583 0.5833 0.0000
vt 0.6077 0.6667 0.0000
vt 0.6123 0.5833 0.0000
vt 0.6250 0.5833 0.0000
vt 0.6250 0.6667 0.0000
vt 0.8750 0.0833 0.0000
vt 0.8750 0.1667 0.0000
vt 0.5774 0.5118 0.0000
vt 0.4226 0.5118 0.0000
vt 0.3865 0.5833 0.0000
vt 0.3872 0.6667 0.0000
vt 0.4240 0.7354 0.0000
vt 0.5417 0.7354 0.0000
vt 0.3272 0.0123 0.0000
vt 0.3642 0.0833 0.0000
vt 0.2917 0.0833 0.0000
vt 0.3333 0.0000 0.0000
vt 0.3646 0.1667 0.0000
vt 0.2917 0.1667 0.0000
vt 0.2083 0.1667 0.0000
vt 0.2083 0.0833 0.0000
vt 0.2917 0.2400 0.0000
vt 0.2083 0.2417 0.0000
vt 0.3750 0.5833 0.0000
vt 0.3750 0.6667 0.0000
vt 0.1371 0.0833 0.0000
vt 0.2083 0.0133 0.0000
vt 0.1354 0.1667 0.0000
vt 0.1250 0.1667 0.0000
vt 0.1250 0.0833 0.0000
vt 0.4583 0.3333 0.0000
vt 0.5417 0.3333 0.0000
vt 0.5417 0.4167 0.0000
vt 0.4583 0.4167 0.0000
vt 0.3812 0.3333 0.0000
vt 0.4196 0.2559 0.0000
vt 0.5833 0.2500 0.0000
vt 0.3750 0.3333 0.0000
vt 0.5782 0.2603 0.0000
vt 0.6161 0.4167 0.0000
vt 0.6154 0.3333 0.0000
vt 0.6250 0.3333 0.0000
vt 0.6250 0.4167 0.0000
vt 0.7083 0.2500 0.0000
vt 0.7917 0.2500 0.0000
vt 0.5833 0.5000 0.0000
vt 0.4167 0.5000 0.0000
vt 0.4216 0.4901 0.0000
vt 0.5788 0.4909 0.0000
vt 0.8750 0.2500 0.0000
vt 0.3842 0.4167 0.0000
vt 0.3750 0.4167 0.0000
vt 0.2083 0.2500 0.0000
vt 0.1250 0.2500 0.0000
vt 0.4583 0.0000 0.0000
vt 0.5833 0.0000 0.0000
vt 0.7083 0.0000 0.0000
vt 0.8333 0.0000 0.0000
vt 0.4167 0.7500 0.0000
vt 0.5417 0.7500 0.0000
vt 0.6250 0.7917 0.0000
vt 0.6155 0.9167 0.0000
vt 0.6139 0.7972 0.0000
vt 0.6250 0.9167 0.0000
vt 0.5788 0.9909 0.0000
vt 0.5833 1.0000 0.0000
vt 0.2083 0.0000 0.0000
vt 0.3750 0.9583 0.0000
vt 0.3849 0.9534 0.0000
vt 0.4583 0.9908 0.0000
vt 0.4583 1.0000 0.0000
vt 0.3750 0.8333 0.0000
vt 0.4215 0.7598 0.0000
vt 0.3847 0.8333 0.0000
vt 0.1250 0.0000 0.0000
vt 0.5417 0.7597 0.0000
vt 0.0000 0.0000 0.0000
vt 1.0000 0.0000 0.0000
vt 1.0000 1.0000 0.0000
vt 0.0000 1.0000 0.0000
# 113 texture coords

g joint_neck
usemtl lambert2
s off
f 1/1/1 2/2/1 3/3/1 
f 4/4/1 5/5/1 6/6/1 
f 6/6/1 3/3/1 4/4/1 
f 3/3/1 6/6/1 7/7/1 
f 7/7/1 1/1/1 3/3/1 
f 8/8/2 9/9/3 1/1/3 
f 1/1/3 7/7/2 8/8/2 
f 8/8/4 10/10/4 11/11/4 
f 8/8/2 7/7/2 12/12/5 
f 12/12/5 10/10/5 8/8/2 
f 12/12/1 7/7/1 6/6/1 
f 13/13/1 12/12/1 6/6/1 
f 6/6/1 5/5/1 13/13/1 
f 14/14/1 13/13/1 5/5/1 
f 15/15/1 14/14/1 5/5/1 
f 5/5/1 4/4/1 15/15/1 
f 16/16/1 15/15/1 4/4/1 
f 2/2/1 16/16/1 4/4/1 
f 4/4/1 3/3/1 2/2/1 
f 17/17/6 18/18/6 19/19/6 
f 18/18/6 20/20/6 21/21/6 
f 21/21/6 19/19/6 18/18/6 
f 22/22/6 23/23/6 24/24/6 
f 23/23/6 17/17/6 19/19/6 
f 19/19/6 24/24/6 23/23/6 
f 25/25/6 22/22/6 24/24/6 
f 24/24/6 26/26/6 25/25/6 
f 21/21/6 26/26/6 24/24/6 
f 24/24/6 19/19/6 21/21/6 
f 20/20/6 27/27/6 21/21/6 
f 27/27/6 28/28/6 26/26/6 
f 26/26/6 21/21/6 27/27/6 
f 28/28/6 25/25/6 26/26/6 
f 14/14/7 15/15/8 29/29/8 
f 29/29/8 30/30/7 14/14/7 
f 28/28/9 27/27/10 30/30/10 
f 30/30/10 29/29/9 28/28/9 
f 31/31/11 32/32/11 33/33/11 
f 33/33/11 34/34/11 31/31/11 
f 35/35/12 36/36/13 37/37/13 
f 37/37/13 38/38/12 35/35/12 
f 17/17/14 23/23/15 38/39/15 
f 38/39/15 37/40/14 17/17/14 
f 39/41/11 36/36/11 31/31/11 
f 40/42/11 39/41/11 31/31/11 
f 31/31/11 34/34/11 40/42/11 
f 41/43/11 40/42/11 34/34/11 
f 42/44/11 41/43/11 34/34/11 
f 34/34/11 33/33/11 42/44/11 
f 43/45/11 42/44/11 33/33/11 
f 44/46/11 43/45/11 33/33/11 
f 33/33/11 32/32/11 44/46/11 
f 35/35/11 44/46/11 32/32/11 
f 36/36/11 35/35/11 32/32/11 
f 32/32/11 31/31/11 36/36/11 
f 45/47/16 46/48/16 47/49/16 
f 9/9/17 46/48/17 45/47/18 
f 45/47/18 48/50/18 9/9/17 
f 46/48/16 49/51/19 50/52/19 
f 50/52/19 47/49/16 46/48/16 
f 47/49/16 50/52/19 51/53/19 
f 51/53/19 52/54/16 47/49/16 
f 9/9/17 8/8/20 49/51/20 
f 49/51/20 46/48/17 9/9/17 
f 49/51/19 53/55/21 50/52/19 
f 53/55/21 54/56/21 51/53/19 
f 51/53/19 50/52/19 53/55/21 
f 55/57/22 41/43/22 42/44/23 
f 42/44/23 56/58/23 55/57/22 
f 57/59/16 58/60/16 52/54/16 
f 54/56/21 59/61/19 51/53/19 
f 59/61/19 57/59/16 52/54/16 
f 52/54/16 51/53/19 59/61/19 
f 58/60/16 45/47/16 47/49/16 
f 47/49/16 52/54/16 58/60/16 
f 57/59/24 59/61/25 55/62/25 
f 55/62/25 56/63/24 57/59/24 
f 60/64/26 61/65/26 62/66/26 
f 62/66/26 63/67/27 60/64/26 
f 64/68/27 65/69/26 60/64/26 
f 12/12/5 13/13/28 66/70/28 
f 66/70/28 10/10/5 12/12/5 
f 10/10/29 65/69/29 64/68/30 
f 64/68/30 11/71/30 10/10/29 
f 66/70/31 67/72/31 65/69/29 
f 65/69/29 10/10/29 66/70/31 
f 68/73/32 69/74/33 70/75/33 
f 70/75/33 71/76/32 68/73/32 
f 13/13/28 14/14/7 30/30/7 
f 30/30/7 66/70/28 13/13/28 
f 69/74/33 67/72/31 66/70/31 
f 66/70/31 70/75/33 69/74/33 
f 30/30/34 70/77/34 66/70/34 
f 70/77/35 20/20/35 18/18/36 
f 18/18/36 71/78/36 70/77/35 
f 30/30/10 27/27/10 20/20/35 
f 20/20/35 70/77/35 30/30/10 
f 72/79/37 39/41/37 40/42/38 
f 40/42/38 73/80/38 72/79/37 
f 74/81/39 75/82/40 72/79/40 
f 72/79/40 73/80/39 74/81/39 
f 36/36/13 39/41/37 72/79/37 
f 72/79/37 37/37/13 36/36/13 
f 75/82/40 68/73/32 71/76/32 
f 71/76/32 72/79/40 75/82/40 
f 71/78/41 37/40/41 72/83/41 
f 71/78/36 18/18/36 17/17/14 
f 17/17/14 37/40/14 71/78/36 
f 11/71/30 64/68/30 76/84/42 
f 76/84/42 77/85/42 11/71/30 
f 53/55/43 11/11/43 77/86/44 
f 77/86/44 54/56/44 53/55/43 
f 64/68/27 60/64/26 63/67/27 
f 63/67/27 76/84/27 64/68/27 
f 40/42/38 41/43/22 55/57/22 
f 55/57/22 73/80/38 40/42/38 
f 76/84/42 74/81/39 73/80/39 
f 73/80/39 77/85/42 76/84/42 
f 55/62/45 77/86/45 73/87/45 
f 59/61/25 54/56/44 77/86/44 
f 77/86/44 55/62/25 59/61/25 
f 8/8/20 11/11/43 53/55/43 
f 53/55/43 49/51/20 8/8/20 
f 74/81/26 76/84/27 63/67/27 
f 75/82/26 74/81/26 63/67/27 
f 63/67/27 62/66/26 75/82/26 
f 68/73/26 75/82/26 62/66/26 
f 69/74/26 68/73/26 62/66/26 
f 62/66/26 61/65/26 69/74/26 
f 67/72/26 69/74/26 61/65/26 
f 65/69/26 67/72/26 61/65/26 
f 61/65/26 60/64/26 65/69/26 
f 78/88/46 9/9/46 48/50/46 
f 79/89/47 16/16/47 2/2/48 
f 2/2/48 78/88/48 79/89/47 
f 2/2/48 1/1/3 9/9/3 
f 9/9/3 78/88/48 2/2/48 
f 29/29/8 15/15/8 16/16/47 
f 16/16/47 79/89/47 29/29/8 
f 80/90/49 29/29/49 79/89/49 
f 25/25/50 28/28/9 29/29/9 
f 29/29/9 80/90/50 25/25/50 
f 81/91/51 22/22/51 25/25/50 
f 25/25/50 80/90/50 81/91/51 
f 82/92/52 43/45/52 44/46/53 
f 44/46/53 83/93/53 82/92/52 
f 83/93/53 44/46/53 35/35/12 
f 35/35/12 38/38/12 83/93/53 
f 83/93/54 38/38/54 81/94/54 
f 23/23/15 22/22/51 81/91/51 
f 81/91/51 38/39/15 23/23/15 
f 56/58/23 42/44/23 43/45/52 
f 43/45/52 82/92/52 56/58/23 
f 84/95/55 85/96/56 81/94/57 
f 81/94/57 80/97/58 84/95/55 
f 86/98/59 84/95/55 80/97/58 
f 80/97/58 79/99/60 86/98/59 
f 48/50/18 45/47/18 58/60/61 
f 58/60/61 87/100/61 48/50/18 
f 48/101/62 88/102/63 89/103/64 
f 89/103/64 78/104/65 48/101/62 
f 79/99/60 78/104/65 89/103/64 
f 89/103/64 86/98/59 79/99/60 
f 87/105/66 82/92/67 90/106/68 
f 90/106/68 91/107/69 87/105/66 
f 87/100/70 56/63/70 82/108/70 
f 87/100/61 58/60/61 57/59/24 
f 57/59/24 56/63/24 87/100/61 
f 83/93/71 92/109/72 90/106/68 
f 90/106/68 82/92/67 83/93/71 
f 85/96/56 92/109/72 83/93/71 
f 83/93/71 81/94/57 85/96/56 
f 48/101/62 87/105/66 91/107/69 
f 91/107/69 88/102/63 48/101/62 
f 84/95/55 86/98/59 93/98/73 
f 93/98/73 94/95/74 84/95/55 
f 89/103/64 88/102/63 95/102/75 
f 95/102/75 96/103/76 89/103/64 
f 86/98/59 89/103/64 96/103/76 
f 96/103/76 93/98/73 86/98/59 
f 85/96/56 84/95/55 94/95/74 
f 94/95/74 97/96/77 85/96/56 
f 90/106/68 92/109/72 98/109/78 
f 98/109/78 99/106/79 90/106/68 
f 92/109/72 85/96/56 97/96/77 
f 97/96/77 98/109/78 92/109/72 
f 88/102/63 91/107/69 100/107/80 
f 100/107/80 95/102/75 88/102/63 
f 91/107/69 90/106/68 99/106/79 
f 99/106/79 100/107/80 91/107/69 
f 94/95/81 93/98/81 101/98/81 
f 101/98/81 102/95/81 94/95/81 
f 96/103/82 95/102/82 103/102/82 
f 103/102/82 104/103/82 96/103/82 
f 93/98/83 96/103/83 104/103/83 
f 104/103/83 101/98/83 93/98/83 
f 97/96/84 94/95/84 102/95/84 
f 102/95/84 105/96/84 97/96/84 
f 99/106/85 98/109/85 106/109/85 
f 106/109/85 107/106/85 99/106/85 
f 98/109/86 97/96/86 105/96/86 
f 105/96/86 106/109/86 98/109/86 
f 95/102/87 100/107/87 108/107/87 
f 108/107/87 103/102/87 95/102/87 
f 100/107/88 99/106/88 107/106/88 
f 107/106/88 108/107/88 100/107/88 
f 102/95/89 101/98/90 109/98/90 
f 109/98/90 110/95/89 102/95/89 
f 104/103/91 103/102/92 111/102/92 
f 111/102/92 112/103/91 104/103/91 
f 101/98/90 104/103/91 112/103/91 
f 112/103/91 109/98/90 101/98/90 
f 105/96/93 102/95/89 110/95/89 
f 110/95/89 113/96/93 105/96/93 
f 107/106/94 106/109/95 114/109/95 
f 114/109/95 115/106/94 107/106/94 
f 106/109/95 105/96/93 113/96/93 
f 113/96/93 114/109/95 106/109/95 
f 103/102/92 108/107/96 116/107/96 
f 116/107/96 111/102/92 103/102/92 
f 108/107/96 107/106/94 115/106/94 
f 115/106/94 116/107/96 108/107/96 
f 110/95/97 109/98/97 117/98/97 
f 117/98/97 118/95/97 110/95/97 
f 112/103/98 111/102/98 119/102/98 
f 119/102/98 120/103/98 112/103/98 
f 109/98/99 112/103/99 120/103/99 
f 120/103/99 117/98/99 109/98/99 
f 113/96/100 110/95/100 118/95/100 
f 118/95/100 121/96/100 113/96/100 
f 115/106/101 114/109/101 122/109/101 
f 122/109/101 123/106/101 115/106/101 
f 114/109/102 113/96/102 121/96/102 
f 121/96/102 122/109/102 114/109/102 
f 111/102/103 116/107/103 124/107/103 
f 124/107/103 119/102/103 111/102/103 
f 116/107/104 115/106/104 123/106/104 
f 123/106/104 124/107/104 116/107/104 
f 118/95/105 117/98/105 125/98/106 
f 125/98/106 126/95/106 118/95/105 
f 120/103/107 119/102/107 127/102/108 
f 127/102/108 128/103/108 120/103/107 
f 117/98/109 120/103/109 128/103/110 
f 128/103/110 125/98/110 117/98/109 
f 121/96/111 118/95/111 126/95/112 
f 126/95/112 129/96/112 121/96/111 
f 123/106/113 122/109/113 130/109/114 
f 130/109/114 131/106/114 123/106/113 
f 122/109/115 121/96/115 129/96/116 
f 129/96/116 130/109/116 122/109/115 
f 119/102/117 124/107/117 132/107/118 
f 132/107/118 127/102/118 119/102/117 
f 124/107/119 123/106/119 131/106/120 
f 131/106/120 132/107/120 124/107/119 
f 126/95/106 125/98/106 133/98/121 
f 133/98/121 134/95/121 126/95/106 
f 128/103/108 127/102/108 135/102/122 
f 135/102/122 136/103/122 128/103/108 
f 125/98/110 128/103/110 136/103/123 
f 136/103/123 133/98/123 125/98/110 
f 129/96/112 126/95/112 134/95/124 
f 134/95/124 137/96/124 129/96/112 
f 131/106/114 130/109/114 138/109/125 
f 138/109/125 139/106/125 131/106/114 
f 130/109/116 129/96/116 137/96/126 
f 137/96/126 138/109/126 130/109/116 
f 127/102/118 132/107/118 140/107/127 
f 140/107/127 135/102/127 127/102/118 
f 132/107/120 131/106/120 139/106/128 
f 139/106/128 140/107/128 132/107/120 
f 134/110/129 133/111/129 141/112/129 
f 141/112/129 142/113/129 134/110/129 
f 136/110/130 135/111/130 143/112/130 
f 143/112/130 144/113/130 136/110/130 
f 133/110/131 136/111/131 144/112/131 
f 144/112/131 141/113/131 133/110/131 
f 137/110/132 134/111/132 142/112/132 
f 142/112/132 145/113/132 137/110/132 
f 139/110/133 138/111/133 146/112/133 
f 146/112/133 147/113/133 139/110/133 
f 138/110/134 137/111/134 145/112/134 
f 145/112/134 146/113/134 138/110/134 
f 135/110/135 140/111/135 148/112/135 
f 148/112/135 143/113/135 135/110/135 
f 140/110/136 139/111/136 147/112/136 
f 147/112/136 148/113/136 140/110/136 
f 142/110/137 141/111/137 149/112/137 
f 149/112/137 150/113/137 142/110/137 
f 144/110/138 143/111/138 151/112/138 
f 151/112/138 152/113/138 144/110/138 
f 141/110/139 144/111/139 152/112/139 
f 152/112/139 149/113/139 141/110/139 
f 145/110/140 142/111/140 150/112/140 
f 150/112/140 153/113/140 145/110/140 
f 147/110/141 146/111/141 154/112/141 
f 154/112/141 155/113/141 147/110/141 
f 146/110/142 145/111/142 153/112/142 
f 153/112/142 154/113/142 146/110/142 
f 143/110/143 148/111/143 156/112/143 
f 156/112/143 151/113/143 143/110/143 
f 148/110/144 147/111/144 155/112/144 
f 155/112/144 156/113/144 148/110/144 
f 157/113/145 158/113/146 159/113/147 
f 157/113/145 159/113/147 160/113/148 
f 157/113/145 160/113/148 161/113/149 
f 157/113/145 161/113/149 162/113/150 
f 157/113/145 162/113/150 163/113/151 
f 157/113/145 163/113/151 164/113/152 
f 150/113/153 149/113/154 158/113/146 
f 158/113/146 157/113/145 150/113/153 
f 149/113/154 152/113/155 159/113/147 
f 159/113/147 158/113/146 149/113/154 
f 152/113/155 151/113/156 160/113/148 
f 160/113/148 159/113/147 152/113/155 
f 151/113/156 156/113/157 161/113/149 
f 161/113/149 160/113/148 151/113/156 
f 156/113/157 155/113/158 162/113/150 
f 162/113/150 161/113/149 156/113/157 
f 155/113/158 154/113/159 163/113/151 
f 163/113/151 162/113/150 155/113/158 
f 154/113/159 153/113/160 164/113/152 
f 164/113/152 163/113/151 154/113/159 
f 153/113/160 150/113/153 157/113/145 
f 157/113/145 164/113/152 153/113/160 
# 324 faces

